<svg data-name="Layer 1" xmlns="http://www.w3.org/2000/svg" viewBox="0 0 1394.99 159.05"><title>inquirer-logo-official-v2</title><path d="M594.55 101c-2.83 2.6-4 2.5-4 2.5-2.23.22-6.2-3.26-6.2-3.26v-87.7c.07-3.94 5.62-8 5.62-8l-1.72-2.18-27.62 18.74 1.1 2.49 5.14-2.65.17.32-.04 24.81-6-4.83h-1.52l-29.6 18.64v1.36a8.27 8.27 0 0 1 3 1.46c.42.38.39-.26.39-.26v37.66c-.09 1.06-3.05 1.82-3.05 1.82v1.34l19.13 16.09h.88l13.6-13.76h.56l16.14 13h.94l15-15.59zm-27.7-2.7l-8.3 7.53a49.77 49.77 0 0 1-5.68-4.6l-2.8-2.63V52.15l1.1-.93 15.75 11.45zM286.55 119.81l.18-38.94V33.5c0-10.73.45-11.66.53-12.19a12.34 12.34 0 0 1 1.59-4.46 5.44 5.44 0 0 1 2.15-1.69l3.41 5.58c1.07 1.68 2 2.92 2 2.92V77.3a13.74 13.74 0 0 0-3.64 1.56 10 10 0 0 0-1.39 1 7.82 7.82 0 0 0-1.84 2.45 5.76 5.76 0 0 0-.4 1.13 8.13 8.13 0 0 0 .21 4.52 9.78 9.78 0 0 0 2.5 3.7 22.25 22.25 0 0 0 6.25 3.81l1.13-.76c-.06-.21-.09-.43-.14-.64a11.48 11.48 0 0 1-.15-3.22 28.55 28.55 0 0 1 .52-4.3 18.21 18.21 0 0 1 1.1-3.35 17 17 0 0 1 5.11-6.09l3.2-2.39 2-1.56 1-.76c1.78-1.37 3.61-2.89 5.06-4.16 1.61-1.41 2.71-2.5 2.71-2.5a43.06 43.06 0 0 0 6.61-8.06 27.55 27.55 0 0 0 3.58-8.63 26.14 26.14 0 0 0 .44-9.19 23.82 23.82 0 0 0-1.3-5 35.58 35.58 0 0 0-2.18-4.69c-.38-.69-.61-1.06-.61-1.06-.43-.74-1-1.6-1.6-2.51a112.78 112.78 0 0 0-10.07-12.11c-2.57-2.76-4.39-4.79-4.39-4.79-5.56-6.16-5.58-8.34-5.58-8.34h-1.3l-14.42 9.79c-7.32-.64-19.34-6.64-19.34-6.64-10.04-4.26-15.91-3.46-15.91-3.46s-17.87-.56-31.21 27.1l3 2S231.9 9.56 256.62 17v103.11c-19.34-1.57-29.86 22.89-29.86 22.89s1.8.92 2.49 1.32c4.57-8.06 17.61-15.05 28.43-1.3l35.05-23.73-1.22-2.4m-32.37 3.81V17.9l9.71 4.1v101.49m45.09-61.1a20.52 20.52 0 0 1-1.18 3.18c-.51 1.07-1 1.85-1 1.85a20.27 20.27 0 0 1-4.18 4.81 21.35 21.35 0 0 1-2.89 2c-1.18.69-2.18 1.14-2.18 1.14a38.88 38.88 0 0 1-3.69 1.25V26.24c.26.2 2 2.65 3 3.94 2.3 2.93 5.64 7.34 5.64 7.34a43.58 43.58 0 0 1 4.54 7.4 25 25 0 0 1 2.72 10 23.52 23.52 0 0 1-.8 7.47zM181.71 85.74v11.72s8.31 7.12 11.57 9.2l12.46-10.38 2.08 2.37-23.14 20.47h-1.19l-21.06-16.47v-1.33s2.82-.74 2.82-1.63V65.57c0-1-3.12-2.22-3.12-2.22V62l29.67-21.35h1.78l17.65 25.51v1.19zm1.34-31.89l-1.33 1v27.48L196.11 73zM418.37 119.11h-.89l-15.43-11.87v-1.34s2.67-.74 2.67-2.23V61.25a54.34 54.34 0 0 0-7.42-6.38l-2.37 2.23-1.78-1.93 13.65-13.94h.89L420.74 53l5.49-5.49 1.93 2.08-7 6.82v45.39s3.12 3.41 5.93 3.41c1.19 0 3.11-1.93 4.45-3.12l1.48 1.93zm-5.05-86.48H412A100.06 100.06 0 0 0 400.86 22v-1.38a52.17 52.17 0 0 0 10.68-11.13h1.34a90.88 90.88 0 0 0 11.13 11v1.31a67.43 67.43 0 0 0-10.69 10.83zM453.52 119.11h-.89l-15.28-11.87v-1.34s2.52-.74 2.52-2.23V20.32l-.15-.3-4.89 2.52-1-2.37c10.38-6.23 26.26-17.8 26.26-17.8l1.63 2.08s-5.34 3.86-5.34 7.71v89.45s3.56 3.11 5.64 3.11c1.19 0 2.67-1.19 4-2.37l1.78 1.93zM616.86 85.74v11.72s8.31 7.12 11.57 9.2l12.46-10.38 2.11 2.37-23.14 20.47h-1.19l-21.06-16.47v-1.33s2.82-.74 2.82-1.63V65.57c0-1-3.12-2.22-3.12-2.22V62L627 40.65h1.78l17.65 25.51v1.19zm1.33-31.89l-1.34 1v27.48L631.24 73zM665.81 119.11h-.89l-15.28-11.87v-1.34s2.52-.74 2.52-2.23V20.32L652 20l-4.89 2.52-1-2.37c10.38-6.23 26.26-17.8 26.26-17.8l1.63 2.1s-5.34 3.86-5.34 7.71v89.45s3.56 3.11 5.64 3.11c1.19 0 2.67-1.19 4-2.37l1.78 1.93zM832.78 119.11h-.89l-15.43-11.87v-1.34s2.67-.74 2.67-2.23V61.25a54.34 54.34 0 0 0-7.42-6.38l-2.37 2.23-1.78-1.93 13.65-13.94h.89l13 11.72 5.49-5.49 1.93 2.08-7 6.82v45.39s3.12 3.41 5.93 3.41c1.19 0 3.12-1.93 4.45-3.12l1.48 1.93zm-5-86.48h-1.38A100.06 100.06 0 0 0 815.27 22v-1.38A52.17 52.17 0 0 0 826 9.49h1.33a90.88 90.88 0 0 0 11.13 11v1.31a68.52 68.52 0 0 0-10.73 10.83zM1059.79 119.11h-.89l-14.69-11.87v-1.34s1.93-.74 1.93-2.23V62.43s-5.64-5.49-9.34-7.57l-6.68 5.64V102s3.71 3.41 5.49 3.41a3.94 3.94 0 0 0 2.52-.74l.89 1.63-11.72 12.76h-.89l-15.72-12.16v-1.3s3-1.19 3-2.23V58.72s-3.26-3.26-5.34-3.26c-1.19 0-2.22.89-3.56 2.08l-1.48-1.93 13.05-14.24h.89s11.72 8 14.39 13.8l14.83-13.8h.89l14.83 12.91 5.49-5.49 1.93 2.08-7 6.82v44.06s3 3.56 5.64 3.56c1.34 0 3-1.63 4.3-2.82l1.63 1.78zM1173.61 105.43L1159 119.11h-.89l-14.68-13-5 4.6-2.08-2.23 6.68-5.93V59.19s-4.16-3.56-5.35-3.56-1.63.74-3 1.93l-1.33-1.93 13.8-14.24h.89l13.35 11.27v1.48s-1.93.89-1.93 2.37v41.83s5.34 5.79 8.75 7.71l6.82-5.79V58.87s-5-3.71-6.08-3.71a4.47 4.47 0 0 0-2.37 1.19l-1.19-1.78 12.61-13.2h.89l12.9 10.83 4.15-3.71 2.08 2.23-6.56 6.28v43.76s4.89 4.6 6.67 4.6c1.19 0 3.41-2.37 4.75-3.56l1.63 1.78-15.13 15.58h-.89zM1225.58 119.11h-.89l-15.43-11.87v-1.34s2.67-.74 2.67-2.23V61.25a54.34 54.34 0 0 0-7.42-6.38l-2.37 2.23-1.78-1.93L1214 41.23h.89L1228 53l5.49-5.49 1.93 2.08-7 6.82v45.39s3.12 3.41 5.93 3.41c1.19 0 3.12-1.93 4.45-3.12l1.48 1.93zm-5-86.48h-1.33A100.06 100.06 0 0 0 1208.07 22v-1.38a52.17 52.17 0 0 0 10.68-11.13h1.33a90.88 90.88 0 0 0 11.13 11v1.31a68.05 68.05 0 0 0-10.68 10.83zM1279.87 61.12c-4.15 0-7.86-1.48-11.57-5.19h-2.22v45.69s5.64 4.15 7.27 4.15c1.19 0 6.68-4.75 8-5.93l1.93 1.93-19.28 17.36h-.89L1247.25 107v-1.33s2.37-1.19 2.37-2.23V59.35s-3.86-3.41-5.64-4c-1.19 0-1.93.89-3.26 2.08l-1.78-1.78 13.35-14.24h1l12.76 11.27 9.79-11.27h1.34s4.45 5.49 9.94 5.49c3.26 0 6.53-.74 8.9-4.45l1.78.89c-2.84 6.07-11 17.79-18 17.79z"/><path d="M1308.94 85.74v11.72s8.31 7.12 11.57 9.2L1333 96.28l2.08 2.37-23.14 20.47h-1.19l-21.06-16.47v-1.33s2.82-.74 2.82-1.63V65.57c0-1-3.11-2.22-3.11-2.22V62l29.6-21.35h1.78l17.65 25.51v1.19zm1.33-31.89l-1.33 1v27.48l14.39-9.33z"/><path d="M1377 61.12c-4.15 0-7.86-1.48-11.57-5.19h-2.22v45.69s5.64 4.15 7.27 4.15c1.19 0 6.68-4.75 8-5.93l1.93 1.93-19.28 17.36h-.89L1344.4 107v-1.33s2.37-1.19 2.37-2.23V59.35s-3.86-3.41-5.64-4c-1.19 0-1.93.89-3.26 2.08l-1.78-1.78 13.35-14.24h1l12.76 11.27 9.8-11.28h1.34s4.45 5.49 9.94 5.49c3.26 0 6.53-.74 8.9-4.45l1.78.89c-2.84 6.07-11 17.79-18 17.79zM739.08 58.27v38.37c0 1.12 3 2.07 3 2.07v1.12l-27.43 19.45h-.8a39.4 39.4 0 0 0-7.17-3.35l-.16.16v24.23l.16.16 4.94-2.39 1.12 1.91c-14.67 9.73-26.15 17.86-26.15 17.86l-1.12-1.59s3.51-2.87 3.51-5.58v-37.62c-3.83.32-7.49.8-9.41 6.7l-1.59-.32c0-8.13 3.51-14.83 11-18v-42s-3.83-4.15-6.06-4.15c-1.59 0-3.67 2.55-5.1 3.83l-1.59-1.59 15.63-16.74h1s12.91 8.72 15.14 14.78l13.71-14.67h1l16 14.19 5.9-5.9 1.75 1.91zm-17.7 5.26s-5.9-5.58-9.73-7.81l-4.94 4.94v39.48c5.1 1.44 8.61 2.23 14.51 7.34l.16-.16zM115.85 16.61v39.9l.15.15 16.17-15.28h.89l14.83 12.91 5.49-5.49 1.93 1.78-7 7.12v44.06s3 3.56 5.64 3.56c1.48 0 3.56-2.23 4.9-3.56l1.78 1.78-15.72 15.58h-.89L130 107.4v-1.34s1.93-.74 1.93-2.23V62.59A62.44 62.44 0 0 0 123 55l-7.12 6.23v39.9a9.5 9.5 0 0 0 8 4.45l.3 1.63-11.72 11.89h-.89l-15-11.87v-1.34s2.82-1.19 2.82-2.23v-80.1c0-1.78-3.26-2.23-3.26-2.23V19.7a200.64 200.64 0 0 0 23.58-16h1s13.38 12.44 22.84-1.78L146 3.09c-16.47 28.65-30.13 13.52-30.13 13.52zM352.51 16.6v39.9l.15.15 16.17-15.28h.89l14.83 12.91 5.45-5.49 2 1.78-7 7.12v44.06s3 3.56 5.64 3.56c1.48 0 3.56-2.23 4.9-3.56l1.78 1.78-15.72 15.58h-.89l-14.09-11.72v-1.33s1.93-.74 1.93-2.23V62.59a62.44 62.44 0 0 0-8.9-7.57l-7.12 6.23v39.9a9.5 9.5 0 0 0 8 4.45l.3 1.63-11.71 11.87h-.89l-15-11.87v-1.33s2.82-1.19 2.82-2.23v-80.1c0-1.78-3.26-2.23-3.26-2.23v-1.63a200.64 200.64 0 0 0 23.58-16h1s13.38 12.44 22.84-1.78l2.37 1.19c-16.48 28.62-30.13 13.5-30.13 13.5zM766.92 16.61v39.9l.15.15 16.17-15.28h.89L799 54.29l5.49-5.49 1.93 1.78-7 7.12v44.06s3 3.56 5.64 3.56c1.48 0 3.56-2.23 4.9-3.56l1.78 1.78L796 119.12h-.89L781 107.4v-1.34s1.93-.74 1.93-2.23V62.59a62.44 62.44 0 0 0-8.9-7.57l-7.12 6.23v39.9a9.5 9.5 0 0 0 8 4.45l.3 1.63-11.68 11.87h-.89l-15-11.87v-1.34s2.82-1.19 2.82-2.23v-80.1c0-1.78-3.26-2.23-3.26-2.23V19.7a200.64 200.64 0 0 0 23.58-16h1s13.38 12.44 22.84-1.78l2.37 1.19c-16.48 28.65-30.13 13.52-30.13 13.52zM1129.1 142.45l-.16-86.19 6.7-6.54-1.92-2.07-6.7 6.06-17.54-12.92h-1l-33 21.53v1a11.07 11.07 0 0 1 3 1.48 1.47 1.47 0 0 1 .45.59v33.94a.81.81 0 0 1-.23.62s-.57.77-3 1.39v1l20.09 16.9h1l14-16h.32l.16 1.68-.22 35 22.07 17.22h1.12s12.09-14.18 23 1.91l1.91-1.28s-15.64-29-30.14-15.32zm-17.86-43.68l-5.9 6.06c-2.06-1-8.61-7.49-8.61-7.49V54.19l.64-.48c2.77 1.48 13.87 10.68 13.87 10.68z"/><path d="M75.35 105.89V27.82c16.71-3.9 25.34-22.31 25.34-22.31l-2.51-1.35a16.89 16.89 0 0 1-4.7 6.13C87 15.28 80.91 15 71 13.4a61.73 61.73 0 0 1-7.26-1.68c-3.25-.88-5.09-1.43-5.09-1.43C47.89 7.18 43.1 6.77 43.1 6.77a47.62 47.62 0 0 0-10.52-.39 22.94 22.94 0 0 0-2.39.39 40.39 40.39 0 0 0-18.76 10.64A47.53 47.53 0 0 0 0 34.35l2.36 1.27a39.45 39.45 0 0 1 2.06-3.69 27.88 27.88 0 0 1 5.75-6.66 18.63 18.63 0 0 1 5.07-3.05 15.53 15.53 0 0 1 5-1.22c4.31-.39 11.26.42 16.88 1.44 5.11.93 9.12 2 9.12 2C-5.84 44.38 6.69 88.82 6.69 88.82a45.78 45.78 0 0 0 19.73 27.29 44 44 0 0 0 19 6.66 49.1 49.1 0 0 0 10-.12 44.38 44.38 0 0 0 12.08-3 40.2 40.2 0 0 0 6.14-3.11 52.85 52.85 0 0 0 13.47-12.06 82.2 82.2 0 0 0 8.46-12.98l-2.43-1.3c-7.36 12.8-17.79 15.69-17.79 15.69zm-34-6.68l1.75 1.86 2.51-1.84 10.73 9.14A34.88 34.88 0 0 1 47.8 107a26.34 26.34 0 0 1-4.8-1.88 30.59 30.59 0 0 1-7.7-5.7 39 39 0 0 1-3.81-4.56 34.08 34.08 0 0 1-3.7-6.7A39 39 0 0 1 26 82.62a44.65 44.65 0 0 1-1-5.17 53.74 53.74 0 0 1-.48-7.92s0-2.74.33-5.93a51.21 51.21 0 0 1 1-6.58 49.15 49.15 0 0 1 2.87-9 47.8 47.8 0 0 1 6-10.22A44.89 44.89 0 0 1 50 25.5S55.92 27 61.27 28L41.34 42.94l1.75 1.87 3.52-2.64a1.63 1.63 0 0 1 .21.29 4.64 4.64 0 0 1 .46 1.16l.12.48a21.89 21.89 0 0 1 .37 2.31c.07.67.16 1.58.21 2.54 0 .77 0 .52.09 2.34v42.92zm23-70.59a28.15 28.15 0 0 0 8.48-.3v78.37a37.5 37.5 0 0 1-7.27 1.41c-1.39.18-4.55.3-4.55.3-1.61.11-4.66 0-4.66 0L67.8 98a11.33 11.33 0 0 1-4.21-5 6.66 6.66 0 0 1-.25-.78 6 6 0 0 1-.16-1V29.51M504.1 41.39h.9l11.72 10.68 4.75-4.3 1.93 2.08-6.67 6.38v44.35s3.71 4.6 6.53 4.6c1.33 0 3-1.48 4.3-2.67l1.48 1.93-15.14 14.69h-.9l-12.76-11.57H500l-12.76 11.57H486c-9.35-2.82-16.61-10.68-16.61-22.4 0-16.76 14.54-26 30.85-27.15V59.49l-7.42-5.64c-2.82 2.82-7 9.35-12 9.35-6.08 0-8.75-4-10.38-7v-.59l9.94-14.24h1.33s5.35 17.26 22.41 0zm-3.86 31.3c-9.49 1.78-14.39 7.42-14.39 17.06s3.86 16.17 8.6 16.17c4 0 5.79-1.93 5.79-1.93zM884.1 41.39h.9l11.72 10.68 4.75-4.3 1.93 2.08-6.67 6.38v44.35s3.71 4.6 6.53 4.6c1.34 0 3-1.48 4.3-2.67l1.48 1.93-15.14 14.69h-.9l-12.76-11.57H880l-12.76 11.57H866c-9.35-2.82-16.61-10.68-16.61-22.4 0-16.76 14.54-26 30.85-27.15V59.49l-7.42-5.64c-2.82 2.82-7 9.35-12 9.35-6.08 0-8.75-4-10.38-7v-.59l9.94-14.24h1.33s5.35 17.26 22.41 0zm-3.86 31.3c-9.49 1.78-14.39 7.42-14.39 17.06s3.86 16.17 8.6 16.17c4 0 5.79-1.93 5.79-1.93zM1015 113.32l-2.22-1.35a16.56 16.56 0 0 1-4.16 6.13c-5.73 5-11.12 4.68-19.94 3.11l-1.22-.24c.36-.57.72-1.19 1.08-1.88a22.55 22.55 0 0 0 2.33-7.68c.28-3 .34-5.51.34-5.51l.55-20.23.15-24.82v-37l.67-.15C1007.36 19.76 1015 1.35 1015 1.35L1012.77 0a16.56 16.56 0 0 1-4.16 6.13c-5.73 5-11.12 4.68-19.94 3.11a49.34 49.34 0 0 1-6.43-1.68c-2.87-.88-4.5-1.43-4.5-1.43C968.26 3 964 2.61 964 2.61a37.33 37.33 0 0 0-9.31-.39 18.7 18.7 0 0 0-2.12.39c-7.13 1.88-12.54 6.25-16.6 10.64a48.68 48.68 0 0 0-10.11 16.94l2.14 1.27a39.68 39.68 0 0 1 1.82-3.69 27.09 27.09 0 0 1 5.09-6.66 16.09 16.09 0 0 1 4.49-3.05 12.54 12.54 0 0 1 4.44-1.22c3.81-.39 10 .42 14.93 1.44 2.67.55 5 1.16 6.45 1.57l-23.35 17.34 2 2.06 3-2.19s1.92.82 1.76 17l-.06 45.64-.73.5-5.93 4.32 2 2.06 2.51-1.83 11 9.31a17.76 17.76 0 0 0-2.57.14 18.7 18.7 0 0 0-2.12.39c-7.13 1.88-12.54 6.25-16.6 10.64a48.68 48.68 0 0 0-10.11 16.94l2.09 1.27a39.68 39.68 0 0 1 1.82-3.69 27.09 27.09 0 0 1 5.09-6.66 16.09 16.09 0 0 1 4.49-3.05 12.54 12.54 0 0 1 4.44-1.22c3.81-.39 10 .42 14.93 1.44 4.52.93 8.07 2.05 8.07 2.05 12.09 3.58 19 6.52 29.42 2 12.11-5.24 18.75-21 18.75-21zm-57.66.72l13.12-10.71-3-2.7a9.25 9.25 0 0 1-2.64-6.23V23.54l3.56-2.74 1.73.55s1.58.43 3.77 1v84.1a46.74 46.74 0 0 1-.71 10.23 59 59 0 0 0-9.14-2.11 58.14 58.14 0 0 0-6.56-.53z"/></svg>
